<?xml version="1.0" encoding="UTF-8"?><svg xmlns="http://www.w3.org/2000/svg" width="1300" height="780" viewBox="0 0 1300 780" role="img" aria-label="Scapular winging: which nerve, which muscle — 翼状肩胛：哪条神经、哪块肌肉（右侧，后面观）"><style>text{font-family:Arial,"PingFang SC","Microsoft YaHei",sans-serif}</style><defs><marker id="fig06-mb4664d" viewBox="0 0 10 10" refX="8" refY="5" markerWidth="6" markerHeight="6" orient="auto-start-reverse"><path d="M0,0 L10,5 L0,10 z" fill="#b4664d"/></marker><marker id="fig06-mb94334" viewBox="0 0 10 10" refX="8" refY="5" markerWidth="6" markerHeight="6" orient="auto-start-reverse"><path d="M0,0 L10,5 L0,10 z" fill="#b94334"/></marker></defs><rect width="100%" height="100%" fill="#fcfaf4"/><text class="fig-title" x="38" y="46" fill="#253b36" font-size="27" font-weight="700" aria-label="Scapular winging: which nerve, which muscle — 翼状肩胛：哪条神经、哪块肌肉（右侧，后面观）"><tspan x="38" dy="0" lang="en">Scapular winging: which nerve, which muscle</tspan><tspan x="38" dy="32" lang="zh-CN" font-size="22" font-weight="400" fill="#68726a">翼状肩胛：哪条神经、哪块肌肉（右侧，后面观）</tspan></text><text x="320.0" y="128.0" font-size="17" fill="#b4664d" text-anchor="middle" font-weight="600" aria-label="A · Medial winging — A · 内侧型翼状肩胛"><tspan x="320.0" dy="0" lang="en">A · Medial winging</tspan><tspan x="320.0" dy="21" lang="zh-CN" font-size="15" font-weight="400" fill="#68726a">A · 内侧型翼状肩胛</tspan></text><g transform="translate(-380,-60) scale(0.82)"><rect x="637" y="353" width="26" height="16" rx="5" fill="#FBF5E6" stroke="#3A3A3A" stroke-width="1.2"/><path d="M668,351 C770,325 900,361 950,421" fill="none" stroke="#ddd3c0" stroke-width="5" stroke-linecap="round" stroke-linejoin="round" /><rect x="637" y="389" width="26" height="16" rx="5" fill="#FBF5E6" stroke="#3A3A3A" stroke-width="1.2"/><path d="M668,387 C770,361 900,397 950,457" fill="none" stroke="#ddd3c0" stroke-width="5" stroke-linecap="round" stroke-linejoin="round" /><rect x="637" y="425" width="26" height="16" rx="5" fill="#FBF5E6" stroke="#3A3A3A" stroke-width="1.2"/><path d="M668,423 C770,397 900,433 950,493" fill="none" stroke="#ddd3c0" stroke-width="5" stroke-linecap="round" stroke-linejoin="round" /><rect x="637" y="461" width="26" height="16" rx="5" fill="#FBF5E6" stroke="#3A3A3A" stroke-width="1.2"/><path d="M668,459 C770,433 900,469 950,529" fill="none" stroke="#ddd3c0" stroke-width="5" stroke-linecap="round" stroke-linejoin="round" /><rect x="637" y="497" width="26" height="16" rx="5" fill="#FBF5E6" stroke="#3A3A3A" stroke-width="1.2"/><path d="M668,495 C770,469 900,505 950,565" fill="none" stroke="#ddd3c0" stroke-width="5" stroke-linecap="round" stroke-linejoin="round" /><rect x="637" y="533" width="26" height="16" rx="5" fill="#FBF5E6" stroke="#3A3A3A" stroke-width="1.2"/><path d="M668,531 C770,505 900,541 950,601" fill="none" stroke="#ddd3c0" stroke-width="5" stroke-linecap="round" stroke-linejoin="round" /><rect x="637" y="569" width="26" height="16" rx="5" fill="#FBF5E6" stroke="#3A3A3A" stroke-width="1.2"/><path d="M668,567 C770,541 900,577 950,637" fill="none" stroke="#ddd3c0" stroke-width="5" stroke-linecap="round" stroke-linejoin="round" /><rect x="637" y="605" width="26" height="16" rx="5" fill="#FBF5E6" stroke="#3A3A3A" stroke-width="1.2"/><path d="M668,603 C770,577 900,613 950,673" fill="none" stroke="#ddd3c0" stroke-width="5" stroke-linecap="round" stroke-linejoin="round" /><rect x="637" y="641" width="26" height="16" rx="5" fill="#FBF5E6" stroke="#3A3A3A" stroke-width="1.2"/><path d="M668,639 C770,613 900,649 950,709" fill="none" stroke="#ddd3c0" stroke-width="5" stroke-linecap="round" stroke-linejoin="round" /><g transform=""><path d="M748,392 C790,384 830,378 862,382 L878,372 C892,380 900,396 906,414 C912,440 902,470 890,500 C870,540 830,585 788,606 C778,610 772,600 772,590 C766,540 756,470 748,392 Z" fill="none" stroke="#9a958a" stroke-width="2" stroke-linecap="round" stroke-linejoin="round" stroke-dasharray="6 6" opacity="0.9" /><path d="M748,392 C790,384 830,378 862,382 L878,372 C892,380 900,396 906,414 C912,440 902,470 890,500 C870,540 830,585 788,606 C778,610 772,600 772,590 C766,540 756,470 748,392 Z" fill="none" stroke="#9a958a" stroke-width="1.00" stroke-linecap="round" stroke-linejoin="round" stroke-dasharray="6 6" opacity="0.29" transform="translate(1.4,1.0)"/><path d="M752,446 C800,428 860,400 912,372 L946,356 C956,362 958,374 948,382 L918,392 C866,416 806,446 756,462 Z" fill="none" stroke="#9a958a" stroke-width="2" stroke-linecap="round" stroke-linejoin="round" stroke-dasharray="6 6" opacity="0.9" /><path d="M752,446 C800,428 860,400 912,372 L946,356 C956,362 958,374 948,382 L918,392 C866,416 806,446 756,462 Z" fill="none" stroke="#9a958a" stroke-width="1.00" stroke-linecap="round" stroke-linejoin="round" stroke-dasharray="6 6" opacity="0.29" transform="translate(1.4,1.0)"/><path d="M912,372 C934,352 966,348 986,358 C996,368 990,382 970,386 C950,390 932,388 918,392 Z" fill="none" stroke="#9a958a" stroke-width="2" stroke-linecap="round" stroke-linejoin="round" stroke-dasharray="6 6" opacity="0.9" /><path d="M912,372 C934,352 966,348 986,358 C996,368 990,382 970,386 C950,390 932,388 918,392 Z" fill="none" stroke="#9a958a" stroke-width="1.00" stroke-linecap="round" stroke-linejoin="round" stroke-dasharray="6 6" opacity="0.29" transform="translate(1.4,1.0)"/></g><g transform="translate(0,-36) rotate(9 790 400)"><path d="M748,392 C756,470 766,540 772,590" fill="none" stroke="#3a3a3a" stroke-width="9" stroke-linecap="round" stroke-linejoin="round" opacity="0.18" /></g><g transform="translate(0,-36) rotate(9 790 400)"><path d="M748,392 C790,384 830,378 862,382 L878,372 C892,380 900,396 906,414 C912,440 902,470 890,500 C870,540 830,585 788,606 C778,610 772,600 772,590 C766,540 756,470 748,392 Z" fill="#FBF5E6" stroke="#3A3A3A" stroke-width="2" stroke-linecap="round" stroke-linejoin="round" opacity="1.0" /><path d="M748,392 C790,384 830,378 862,382 L878,372 C892,380 900,396 906,414 C912,440 902,470 890,500 C870,540 830,585 788,606 C778,610 772,600 772,590 C766,540 756,470 748,392 Z" fill="none" stroke="#3A3A3A" stroke-width="1.00" stroke-linecap="round" stroke-linejoin="round" opacity="0.32" transform="translate(1.4,1.0)"/><path d="M752,446 C800,428 860,400 912,372 L946,356 C956,362 958,374 948,382 L918,392 C866,416 806,446 756,462 Z" fill="#efe5cf" stroke="#3A3A3A" stroke-width="2" stroke-linecap="round" stroke-linejoin="round" opacity="1.0" /><path d="M752,446 C800,428 860,400 912,372 L946,356 C956,362 958,374 948,382 L918,392 C866,416 806,446 756,462 Z" fill="none" stroke="#3A3A3A" stroke-width="1.00" stroke-linecap="round" stroke-linejoin="round" opacity="0.32" transform="translate(1.4,1.0)"/><path d="M912,372 C934,352 966,348 986,358 C996,368 990,382 970,386 C950,390 932,388 918,392 Z" fill="#FBF5E6" stroke="#3A3A3A" stroke-width="2" stroke-linecap="round" stroke-linejoin="round" opacity="1.0" /><path d="M912,372 C934,352 966,348 986,358 C996,368 990,382 970,386 C950,390 932,388 918,392 Z" fill="none" stroke="#3A3A3A" stroke-width="1.00" stroke-linecap="round" stroke-linejoin="round" opacity="0.32" transform="translate(1.4,1.0)"/></g></g><path d="M265,432 L239,400" fill="none" stroke="#b4664d" stroke-width="3.4" stroke-linecap="round" marker-end="url(#fig06-mb4664d)"/><text x="160.0" y="542.0" font-size="12" fill="#777" text-anchor="start" font-weight="400" lang="zh-CN">Dashed = normal position · 虚线 = 正常位置</text><text x="60.0" y="570.0" font-size="15" fill="#b4664d" text-anchor="start" font-weight="600" aria-label="Long thoracic nerve → serratus anterior weak — 胸长神经 → 前锯肌无力"><tspan x="60.0" dy="0" lang="en">Long thoracic nerve → serratus anterior weak</tspan><tspan x="60.0" dy="19" lang="zh-CN" font-size="13" font-weight="400" fill="#68726a">胸长神经 → 前锯肌无力</tspan></text><text x="60.0" y="628.0" font-size="15" fill="#253b36" text-anchor="start" font-weight="400" aria-label="Scapula moves UP; inferior angle turns toward the midline — 肩胛骨上移，下角转向中线"><tspan x="60.0" dy="0" lang="en">Scapula moves UP; inferior angle turns toward the midline</tspan><tspan x="60.0" dy="19" lang="zh-CN" font-size="13" font-weight="400" fill="#68726a">肩胛骨上移，下角转向中线</tspan></text><text x="60.0" y="686.0" font-size="15" fill="#253b36" text-anchor="start" font-weight="400" aria-label="Medial border lifts off the ribs; worst in a wall push — 内侧缘离开胸壁；推墙时最明显"><tspan x="60.0" dy="0" lang="en">Medial border lifts off the ribs; worst in a wall push</tspan><tspan x="60.0" dy="19" lang="zh-CN" font-size="13" font-weight="400" fill="#68726a">内侧缘离开胸壁；推墙时最明显</tspan></text><text x="970.0" y="128.0" font-size="17" fill="#b94334" text-anchor="middle" font-weight="600" aria-label="B · Lateral winging — B · 外侧型翼状肩胛"><tspan x="970.0" dy="0" lang="en">B · Lateral winging</tspan><tspan x="970.0" dy="21" lang="zh-CN" font-size="15" font-weight="400" fill="#68726a">B · 外侧型翼状肩胛</tspan></text><g transform="translate(270,-60) scale(0.82)"><rect x="637" y="353" width="26" height="16" rx="5" fill="#FBF5E6" stroke="#3A3A3A" stroke-width="1.2"/><path d="M668,351 C770,325 900,361 950,421" fill="none" stroke="#ddd3c0" stroke-width="5" stroke-linecap="round" stroke-linejoin="round" /><rect x="637" y="389" width="26" height="16" rx="5" fill="#FBF5E6" stroke="#3A3A3A" stroke-width="1.2"/><path d="M668,387 C770,361 900,397 950,457" fill="none" stroke="#ddd3c0" stroke-width="5" stroke-linecap="round" stroke-linejoin="round" /><rect x="637" y="425" width="26" height="16" rx="5" fill="#FBF5E6" stroke="#3A3A3A" stroke-width="1.2"/><path d="M668,423 C770,397 900,433 950,493" fill="none" stroke="#ddd3c0" stroke-width="5" stroke-linecap="round" stroke-linejoin="round" /><rect x="637" y="461" width="26" height="16" rx="5" fill="#FBF5E6" stroke="#3A3A3A" stroke-width="1.2"/><path d="M668,459 C770,433 900,469 950,529" fill="none" stroke="#ddd3c0" stroke-width="5" stroke-linecap="round" stroke-linejoin="round" /><rect x="637" y="497" width="26" height="16" rx="5" fill="#FBF5E6" stroke="#3A3A3A" stroke-width="1.2"/><path d="M668,495 C770,469 900,505 950,565" fill="none" stroke="#ddd3c0" stroke-width="5" stroke-linecap="round" stroke-linejoin="round" /><rect x="637" y="533" width="26" height="16" rx="5" fill="#FBF5E6" stroke="#3A3A3A" stroke-width="1.2"/><path d="M668,531 C770,505 900,541 950,601" fill="none" stroke="#ddd3c0" stroke-width="5" stroke-linecap="round" stroke-linejoin="round" /><rect x="637" y="569" width="26" height="16" rx="5" fill="#FBF5E6" stroke="#3A3A3A" stroke-width="1.2"/><path d="M668,567 C770,541 900,577 950,637" fill="none" stroke="#ddd3c0" stroke-width="5" stroke-linecap="round" stroke-linejoin="round" /><rect x="637" y="605" width="26" height="16" rx="5" fill="#FBF5E6" stroke="#3A3A3A" stroke-width="1.2"/><path d="M668,603 C770,577 900,613 950,673" fill="none" stroke="#ddd3c0" stroke-width="5" stroke-linecap="round" stroke-linejoin="round" /><rect x="637" y="641" width="26" height="16" rx="5" fill="#FBF5E6" stroke="#3A3A3A" stroke-width="1.2"/><path d="M668,639 C770,613 900,649 950,709" fill="none" stroke="#ddd3c0" stroke-width="5" stroke-linecap="round" stroke-linejoin="round" /><g transform=""><path d="M748,392 C790,384 830,378 862,382 L878,372 C892,380 900,396 906,414 C912,440 902,470 890,500 C870,540 830,585 788,606 C778,610 772,600 772,590 C766,540 756,470 748,392 Z" fill="none" stroke="#9a958a" stroke-width="2" stroke-linecap="round" stroke-linejoin="round" stroke-dasharray="6 6" opacity="0.9" /><path d="M748,392 C790,384 830,378 862,382 L878,372 C892,380 900,396 906,414 C912,440 902,470 890,500 C870,540 830,585 788,606 C778,610 772,600 772,590 C766,540 756,470 748,392 Z" fill="none" stroke="#9a958a" stroke-width="1.00" stroke-linecap="round" stroke-linejoin="round" stroke-dasharray="6 6" opacity="0.29" transform="translate(1.4,1.0)"/><path d="M752,446 C800,428 860,400 912,372 L946,356 C956,362 958,374 948,382 L918,392 C866,416 806,446 756,462 Z" fill="none" stroke="#9a958a" stroke-width="2" stroke-linecap="round" stroke-linejoin="round" stroke-dasharray="6 6" opacity="0.9" /><path d="M752,446 C800,428 860,400 912,372 L946,356 C956,362 958,374 948,382 L918,392 C866,416 806,446 756,462 Z" fill="none" stroke="#9a958a" stroke-width="1.00" stroke-linecap="round" stroke-linejoin="round" stroke-dasharray="6 6" opacity="0.29" transform="translate(1.4,1.0)"/><path d="M912,372 C934,352 966,348 986,358 C996,368 990,382 970,386 C950,390 932,388 918,392 Z" fill="none" stroke="#9a958a" stroke-width="2" stroke-linecap="round" stroke-linejoin="round" stroke-dasharray="6 6" opacity="0.9" /><path d="M912,372 C934,352 966,348 986,358 C996,368 990,382 970,386 C950,390 932,388 918,392 Z" fill="none" stroke="#9a958a" stroke-width="1.00" stroke-linecap="round" stroke-linejoin="round" stroke-dasharray="6 6" opacity="0.29" transform="translate(1.4,1.0)"/></g><g transform="translate(0,44) rotate(-10 790 400)"><path d="M748,392 C790,384 830,378 862,382 L878,372 C892,380 900,396 906,414 C912,440 902,470 890,500 C870,540 830,585 788,606 C778,610 772,600 772,590 C766,540 756,470 748,392 Z" fill="#FBF5E6" stroke="#3A3A3A" stroke-width="2" stroke-linecap="round" stroke-linejoin="round" opacity="1.0" /><path d="M748,392 C790,384 830,378 862,382 L878,372 C892,380 900,396 906,414 C912,440 902,470 890,500 C870,540 830,585 788,606 C778,610 772,600 772,590 C766,540 756,470 748,392 Z" fill="none" stroke="#3A3A3A" stroke-width="1.00" stroke-linecap="round" stroke-linejoin="round" opacity="0.32" transform="translate(1.4,1.0)"/><path d="M752,446 C800,428 860,400 912,372 L946,356 C956,362 958,374 948,382 L918,392 C866,416 806,446 756,462 Z" fill="#efe5cf" stroke="#3A3A3A" stroke-width="2" stroke-linecap="round" stroke-linejoin="round" opacity="1.0" /><path d="M752,446 C800,428 860,400 912,372 L946,356 C956,362 958,374 948,382 L918,392 C866,416 806,446 756,462 Z" fill="none" stroke="#3A3A3A" stroke-width="1.00" stroke-linecap="round" stroke-linejoin="round" opacity="0.32" transform="translate(1.4,1.0)"/><path d="M912,372 C934,352 966,348 986,358 C996,368 990,382 970,386 C950,390 932,388 918,392 Z" fill="#FBF5E6" stroke="#3A3A3A" stroke-width="2" stroke-linecap="round" stroke-linejoin="round" opacity="1.0" /><path d="M912,372 C934,352 966,348 986,358 C996,368 990,382 970,386 C950,390 932,388 918,392 Z" fill="none" stroke="#3A3A3A" stroke-width="1.00" stroke-linecap="round" stroke-linejoin="round" opacity="0.32" transform="translate(1.4,1.0)"/></g></g><path d="M915,432 L943,466" fill="none" stroke="#b94334" stroke-width="3.4" stroke-linecap="round" marker-end="url(#fig06-mb94334)"/><text x="810.0" y="542.0" font-size="12" fill="#777" text-anchor="start" font-weight="400" lang="zh-CN">Dashed = normal position · 虚线 = 正常位置</text><text x="710.0" y="570.0" font-size="15" fill="#b94334" text-anchor="start" font-weight="600" aria-label="Spinal accessory nerve → trapezius weak — 副神经 → 斜方肌无力"><tspan x="710.0" dy="0" lang="en">Spinal accessory nerve → trapezius weak</tspan><tspan x="710.0" dy="19" lang="zh-CN" font-size="13" font-weight="400" fill="#68726a">副神经 → 斜方肌无力</tspan></text><text x="710.0" y="628.0" font-size="15" fill="#253b36" text-anchor="start" font-weight="400" aria-label="Scapula moves DOWN; inferior angle turns outward — 肩胛骨下移，下角转向外"><tspan x="710.0" dy="0" lang="en">Scapula moves DOWN; inferior angle turns outward</tspan><tspan x="710.0" dy="19" lang="zh-CN" font-size="13" font-weight="400" fill="#68726a">肩胛骨下移，下角转向外</tspan></text><text x="710.0" y="686.0" font-size="15" fill="#253b36" text-anchor="start" font-weight="400" aria-label="Shoulder droops; a resisted shrug is weak — 肩下垂；抗阻耸肩无力"><tspan x="710.0" dy="0" lang="en">Shoulder droops; a resisted shrug is weak</tspan><tspan x="710.0" dy="19" lang="zh-CN" font-size="13" font-weight="400" fill="#68726a">肩下垂；抗阻耸肩无力</tspan></text><text class="fig-foot" x="38" y="746" font-size="13" fill="#6b706a"><tspan x="38" dy="0" lang="en">Schematic; pathway and layers are simplified.</tspan><tspan x="38" dy="17" lang="zh-CN">解剖示意；走行与层次经过简化。</tspan></text></svg>