<?xml version="1.0" encoding="UTF-8"?>
<svg xmlns="http://www.w3.org/2000/svg" width="1440" height="480" viewBox="20 1355 1440 480" role="img" aria-label="Muscle activation across arm elevation — 上举过程中的肌肉发力"><style type="text/css">.cn{font-family:"Kaiti SC","STKaiti","KaiTi",serif}.en{font-family:"Chalkboard SE","Kaiti SC",sans-serif}.title{font-family:"Marker Felt","Kaiti SC",sans-serif}</style><defs><filter id="fig13-rough" filterUnits="userSpaceOnUse" x="-3000" y="-3000" width="9000" height="9000"><feTurbulence type="fractalNoise" baseFrequency="0.035" numOctaves="2" seed="7" /><feDisplacementMap in="SourceGraphic" scale="2.2" /></filter><marker id="fig13-ar" viewBox="0 0 10 10" refX="8" refY="5" markerWidth="7" markerHeight="7" orient="auto-start-reverse"><path d="M0,0 L10,5 L0,10 z" fill="#B8322A" /></marker><marker id="fig13-ab" viewBox="0 0 10 10" refX="8" refY="5" markerWidth="7" markerHeight="7" orient="auto-start-reverse"><path d="M0,0 L10,5 L0,10 z" fill="#2B4C8C" /></marker><marker id="fig13-ak" viewBox="0 0 10 10" refX="8" refY="5" markerWidth="7" markerHeight="7" orient="auto-start-reverse"><path d="M0,0 L10,5 L0,10 z" fill="#222" /></marker><marker id="fig13-ag" viewBox="0 0 10 10" refX="8" refY="5" markerWidth="7" markerHeight="7" orient="auto-start-reverse"><path d="M0,0 L10,5 L0,10 z" fill="#3C7A3A" /></marker><marker id="fig13-ap" viewBox="0 0 10 10" refX="8" refY="5" markerWidth="7" markerHeight="7" orient="auto-start-reverse"><path d="M0,0 L10,5 L0,10 z" fill="#6B4C9A" /></marker><marker id="fig13-ay" viewBox="0 0 10 10" refX="8" refY="5" markerWidth="7" markerHeight="7" orient="auto-start-reverse"><path d="M0,0 L10,5 L0,10 z" fill="#C9971B" /></marker><marker id="fig13-agr" viewBox="0 0 10 10" refX="8" refY="5" markerWidth="7" markerHeight="7" orient="auto-start-reverse"><path d="M0,0 L10,5 L0,10 z" fill="#9A958A" /></marker></defs><text x="40.0" y="1378" class="en" font-size="14" fill="#666" text-anchor="start" font-weight="normal" font-family="Arial, Helvetica, sans-serif" aria-label="Darker color = greater activation; schematic EMG trends, not exact values — 颜色越深代表越用力；综合肌电研究的一般规律示意，并非精确数值"><tspan x="40.0" dy="0" lang="en">Darker color = greater activation; schematic EMG trends, not exact values</tspan><tspan x="40.0" dy="16" font-size="12" font-weight="normal" class="cn" lang="zh-CN">颜色越深代表越用力；综合肌电研究的一般规律示意，并非精确数值</tspan></text><rect x="613" y="1416" width="283" height="318" fill="#F6D9D2" opacity="0.6" transform="translate(240,0)" /><text x="995" y="1395" class="en" font-size="13" fill="#B8322A" text-anchor="middle" font-weight="bold" font-family="Arial, Helvetica, sans-serif" aria-label="Painful arc: 60–120° — 疼痛弧：60–120°"><tspan x="995" dy="0" lang="en">Painful arc: 60–120°</tspan><tspan x="995" dy="15" font-size="11" font-weight="normal" class="cn" lang="zh-CN">疼痛弧：60–120°</tspan></text><text x="40" y="1446.0" class="en" font-size="14" fill="#B8322A" text-anchor="start" font-weight="bold" font-family="Arial, Helvetica, sans-serif" aria-label="Middle Deltoid — 三角肌中束"><tspan x="40" dy="0" lang="en">Middle Deltoid</tspan><tspan x="40" dy="16" font-size="12" font-weight="normal" class="cn" lang="zh-CN">三角肌中束</tspan></text><text x="300" y="1446.0" class="en" font-size="13" fill="#666" text-anchor="start" font-weight="normal" font-family="Arial, Helvetica, sans-serif" aria-label="Axillary nerve — 腋神经"><tspan x="300" dy="0" lang="en">Axillary nerve</tspan><tspan x="300" dy="15" font-size="11" font-weight="normal" class="cn" lang="zh-CN">腋神经</tspan></text><rect x="330.0" y="1430" width="24.2" height="26" fill="#B8322A" opacity="0.26" transform="translate(240,0)" /><rect x="353.6" y="1430" width="24.2" height="26" fill="#B8322A" opacity="0.30" transform="translate(240,0)" /><rect x="377.2" y="1430" width="24.2" height="26" fill="#B8322A" opacity="0.34" transform="translate(240,0)" /><rect x="400.8" y="1430" width="24.2" height="26" fill="#B8322A" opacity="0.37" transform="translate(240,0)" /><rect x="424.4" y="1430" width="24.2" height="26" fill="#B8322A" opacity="0.41" transform="translate(240,0)" /><rect x="448.1" y="1430" width="24.2" height="26" fill="#B8322A" opacity="0.45" transform="translate(240,0)" /><rect x="471.7" y="1430" width="24.2" height="26" fill="#B8322A" opacity="0.49" transform="translate(240,0)" /><rect x="495.3" y="1430" width="24.2" height="26" fill="#B8322A" opacity="0.52" transform="translate(240,0)" /><rect x="518.9" y="1430" width="24.2" height="26" fill="#B8322A" opacity="0.54" transform="translate(240,0)" /><rect x="542.5" y="1430" width="24.2" height="26" fill="#B8322A" opacity="0.58" transform="translate(240,0)" /><rect x="566.1" y="1430" width="24.2" height="26" fill="#B8322A" opacity="0.60" transform="translate(240,0)" /><rect x="589.7" y="1430" width="24.2" height="26" fill="#B8322A" opacity="0.64" transform="translate(240,0)" /><rect x="613.3" y="1430" width="24.2" height="26" fill="#B8322A" opacity="0.67" transform="translate(240,0)" /><rect x="636.9" y="1430" width="24.2" height="26" fill="#B8322A" opacity="0.69" transform="translate(240,0)" /><rect x="660.6" y="1430" width="24.2" height="26" fill="#B8322A" opacity="0.72" transform="translate(240,0)" /><rect x="684.2" y="1430" width="24.2" height="26" fill="#B8322A" opacity="0.76" transform="translate(240,0)" /><rect x="707.8" y="1430" width="24.2" height="26" fill="#B8322A" opacity="0.78" transform="translate(240,0)" /><rect x="731.4" y="1430" width="24.2" height="26" fill="#B8322A" opacity="0.81" transform="translate(240,0)" /><rect x="755.0" y="1430" width="24.2" height="26" fill="#B8322A" opacity="0.84" transform="translate(240,0)" /><rect x="778.6" y="1430" width="24.2" height="26" fill="#B8322A" opacity="0.85" transform="translate(240,0)" /><rect x="802.2" y="1430" width="24.2" height="26" fill="#B8322A" opacity="0.86" transform="translate(240,0)" /><rect x="825.8" y="1430" width="24.2" height="26" fill="#B8322A" opacity="0.87" transform="translate(240,0)" /><rect x="849.4" y="1430" width="24.2" height="26" fill="#B8322A" opacity="0.88" transform="translate(240,0)" /><rect x="873.1" y="1430" width="24.2" height="26" fill="#B8322A" opacity="0.88" transform="translate(240,0)" /><rect x="896.7" y="1430" width="24.2" height="26" fill="#B8322A" opacity="0.89" transform="translate(240,0)" /><rect x="920.3" y="1430" width="24.2" height="26" fill="#B8322A" opacity="0.89" transform="translate(240,0)" /><rect x="943.9" y="1430" width="24.2" height="26" fill="#B8322A" opacity="0.89" transform="translate(240,0)" /><rect x="967.5" y="1430" width="24.2" height="26" fill="#B8322A" opacity="0.89" transform="translate(240,0)" /><rect x="991.1" y="1430" width="24.2" height="26" fill="#B8322A" opacity="0.89" transform="translate(240,0)" /><rect x="1014.7" y="1430" width="24.2" height="26" fill="#B8322A" opacity="0.89" transform="translate(240,0)" /><rect x="1038.3" y="1430" width="24.2" height="26" fill="#B8322A" opacity="0.89" transform="translate(240,0)" /><rect x="1061.9" y="1430" width="24.2" height="26" fill="#B8322A" opacity="0.88" transform="translate(240,0)" /><rect x="1085.6" y="1430" width="24.2" height="26" fill="#B8322A" opacity="0.88" transform="translate(240,0)" /><rect x="1109.2" y="1430" width="24.2" height="26" fill="#B8322A" opacity="0.87" transform="translate(240,0)" /><rect x="1132.8" y="1430" width="24.2" height="26" fill="#B8322A" opacity="0.86" transform="translate(240,0)" /><rect x="1156.4" y="1430" width="24.2" height="26" fill="#B8322A" opacity="0.85" transform="translate(240,0)" /><rect x="330" y="1430" width="850" height="26" fill="none" stroke="#B8322A" stroke-width="1.2" rx="3" transform="translate(240,0)" /><text x="40" y="1490.0" class="en" font-size="14" fill="#B8322A" text-anchor="start" font-weight="bold" font-family="Arial, Helvetica, sans-serif" aria-label="Supraspinatus — 冈上肌"><tspan x="40" dy="0" lang="en">Supraspinatus</tspan><tspan x="40" dy="16" font-size="12" font-weight="normal" class="cn" lang="zh-CN">冈上肌</tspan></text><text x="300" y="1490.0" class="en" font-size="13" fill="#666" text-anchor="start" font-weight="normal" font-family="Arial, Helvetica, sans-serif" aria-label="Suprascapular nerve — 肩胛上神经"><tspan x="300" dy="0" lang="en">Suprascapular nerve</tspan><tspan x="300" dy="15" font-size="11" font-weight="normal" class="cn" lang="zh-CN">肩胛上神经</tspan></text><rect x="330.0" y="1474" width="24.2" height="26" fill="#B8322A" opacity="0.49" transform="translate(240,0)" /><rect x="353.6" y="1474" width="24.2" height="26" fill="#B8322A" opacity="0.51" transform="translate(240,0)" /><rect x="377.2" y="1474" width="24.2" height="26" fill="#B8322A" opacity="0.53" transform="translate(240,0)" /><rect x="400.8" y="1474" width="24.2" height="26" fill="#B8322A" opacity="0.55" transform="translate(240,0)" /><rect x="424.4" y="1474" width="24.2" height="26" fill="#B8322A" opacity="0.58" transform="translate(240,0)" /><rect x="448.1" y="1474" width="24.2" height="26" fill="#B8322A" opacity="0.60" transform="translate(240,0)" /><rect x="471.7" y="1474" width="24.2" height="26" fill="#B8322A" opacity="0.62" transform="translate(240,0)" /><rect x="495.3" y="1474" width="24.2" height="26" fill="#B8322A" opacity="0.64" transform="translate(240,0)" /><rect x="518.9" y="1474" width="24.2" height="26" fill="#B8322A" opacity="0.65" transform="translate(240,0)" /><rect x="542.5" y="1474" width="24.2" height="26" fill="#B8322A" opacity="0.66" transform="translate(240,0)" /><rect x="566.1" y="1474" width="24.2" height="26" fill="#B8322A" opacity="0.68" transform="translate(240,0)" /><rect x="589.7" y="1474" width="24.2" height="26" fill="#B8322A" opacity="0.69" transform="translate(240,0)" /><rect x="613.3" y="1474" width="24.2" height="26" fill="#B8322A" opacity="0.71" transform="translate(240,0)" /><rect x="636.9" y="1474" width="24.2" height="26" fill="#B8322A" opacity="0.72" transform="translate(240,0)" /><rect x="660.6" y="1474" width="24.2" height="26" fill="#B8322A" opacity="0.72" transform="translate(240,0)" /><rect x="684.2" y="1474" width="24.2" height="26" fill="#B8322A" opacity="0.73" transform="translate(240,0)" /><rect x="707.8" y="1474" width="24.2" height="26" fill="#B8322A" opacity="0.74" transform="translate(240,0)" /><rect x="731.4" y="1474" width="24.2" height="26" fill="#B8322A" opacity="0.75" transform="translate(240,0)" /><rect x="755.0" y="1474" width="24.2" height="26" fill="#B8322A" opacity="0.76" transform="translate(240,0)" /><rect x="778.6" y="1474" width="24.2" height="26" fill="#B8322A" opacity="0.74" transform="translate(240,0)" /><rect x="802.2" y="1474" width="24.2" height="26" fill="#B8322A" opacity="0.72" transform="translate(240,0)" /><rect x="825.8" y="1474" width="24.2" height="26" fill="#B8322A" opacity="0.71" transform="translate(240,0)" /><rect x="849.4" y="1474" width="24.2" height="26" fill="#B8322A" opacity="0.69" transform="translate(240,0)" /><rect x="873.1" y="1474" width="24.2" height="26" fill="#B8322A" opacity="0.68" transform="translate(240,0)" /><rect x="896.7" y="1474" width="24.2" height="26" fill="#B8322A" opacity="0.67" transform="translate(240,0)" /><rect x="920.3" y="1474" width="24.2" height="26" fill="#B8322A" opacity="0.65" transform="translate(240,0)" /><rect x="943.9" y="1474" width="24.2" height="26" fill="#B8322A" opacity="0.64" transform="translate(240,0)" /><rect x="967.5" y="1474" width="24.2" height="26" fill="#B8322A" opacity="0.62" transform="translate(240,0)" /><rect x="991.1" y="1474" width="24.2" height="26" fill="#B8322A" opacity="0.60" transform="translate(240,0)" /><rect x="1014.7" y="1474" width="24.2" height="26" fill="#B8322A" opacity="0.59" transform="translate(240,0)" /><rect x="1038.3" y="1474" width="24.2" height="26" fill="#B8322A" opacity="0.58" transform="translate(240,0)" /><rect x="1061.9" y="1474" width="24.2" height="26" fill="#B8322A" opacity="0.57" transform="translate(240,0)" /><rect x="1085.6" y="1474" width="24.2" height="26" fill="#B8322A" opacity="0.56" transform="translate(240,0)" /><rect x="1109.2" y="1474" width="24.2" height="26" fill="#B8322A" opacity="0.55" transform="translate(240,0)" /><rect x="1132.8" y="1474" width="24.2" height="26" fill="#B8322A" opacity="0.55" transform="translate(240,0)" /><rect x="1156.4" y="1474" width="24.2" height="26" fill="#B8322A" opacity="0.54" transform="translate(240,0)" /><rect x="330" y="1474" width="850" height="26" fill="none" stroke="#B8322A" stroke-width="1.2" rx="3" transform="translate(240,0)" /><text x="40" y="1534.0" class="en" font-size="14" fill="#2B4C8C" text-anchor="start" font-weight="bold" font-family="Arial, Helvetica, sans-serif" aria-label="Infraspinatus + Teres minor — 冈下肌 + 小圆肌"><tspan x="40" dy="0" lang="en">Infraspinatus + Teres minor</tspan><tspan x="40" dy="16" font-size="12" font-weight="normal" class="cn" lang="zh-CN">冈下肌 + 小圆肌</tspan></text><text x="300" y="1534.0" class="en" font-size="13" fill="#666" text-anchor="start" font-weight="normal" font-family="Arial, Helvetica, sans-serif" aria-label="Suprascapular / Axillary nerves — 肩胛上神经 / 腋神经"><tspan x="300" dy="0" lang="en">Suprascapular / Axillary nerves</tspan><tspan x="300" dy="15" font-size="11" font-weight="normal" class="cn" lang="zh-CN">肩胛上神经 / 腋神经</tspan></text><rect x="330.0" y="1518" width="24.2" height="26" fill="#2B4C8C" opacity="0.26" transform="translate(240,0)" /><rect x="353.6" y="1518" width="24.2" height="26" fill="#2B4C8C" opacity="0.28" transform="translate(240,0)" /><rect x="377.2" y="1518" width="24.2" height="26" fill="#2B4C8C" opacity="0.29" transform="translate(240,0)" /><rect x="400.8" y="1518" width="24.2" height="26" fill="#2B4C8C" opacity="0.30" transform="translate(240,0)" /><rect x="424.4" y="1518" width="24.2" height="26" fill="#2B4C8C" opacity="0.32" transform="translate(240,0)" /><rect x="448.1" y="1518" width="24.2" height="26" fill="#2B4C8C" opacity="0.34" transform="translate(240,0)" /><rect x="471.7" y="1518" width="24.2" height="26" fill="#2B4C8C" opacity="0.35" transform="translate(240,0)" /><rect x="495.3" y="1518" width="24.2" height="26" fill="#2B4C8C" opacity="0.36" transform="translate(240,0)" /><rect x="518.9" y="1518" width="24.2" height="26" fill="#2B4C8C" opacity="0.38" transform="translate(240,0)" /><rect x="542.5" y="1518" width="24.2" height="26" fill="#2B4C8C" opacity="0.40" transform="translate(240,0)" /><rect x="566.1" y="1518" width="24.2" height="26" fill="#2B4C8C" opacity="0.41" transform="translate(240,0)" /><rect x="589.7" y="1518" width="24.2" height="26" fill="#2B4C8C" opacity="0.43" transform="translate(240,0)" /><rect x="613.3" y="1518" width="24.2" height="26" fill="#2B4C8C" opacity="0.44" transform="translate(240,0)" /><rect x="636.9" y="1518" width="24.2" height="26" fill="#2B4C8C" opacity="0.46" transform="translate(240,0)" /><rect x="660.6" y="1518" width="24.2" height="26" fill="#2B4C8C" opacity="0.49" transform="translate(240,0)" /><rect x="684.2" y="1518" width="24.2" height="26" fill="#2B4C8C" opacity="0.51" transform="translate(240,0)" /><rect x="707.8" y="1518" width="24.2" height="26" fill="#2B4C8C" opacity="0.53" transform="translate(240,0)" /><rect x="731.4" y="1518" width="24.2" height="26" fill="#2B4C8C" opacity="0.55" transform="translate(240,0)" /><rect x="755.0" y="1518" width="24.2" height="26" fill="#2B4C8C" opacity="0.58" transform="translate(240,0)" /><rect x="778.6" y="1518" width="24.2" height="26" fill="#2B4C8C" opacity="0.60" transform="translate(240,0)" /><rect x="802.2" y="1518" width="24.2" height="26" fill="#2B4C8C" opacity="0.62" transform="translate(240,0)" /><rect x="825.8" y="1518" width="24.2" height="26" fill="#2B4C8C" opacity="0.64" transform="translate(240,0)" /><rect x="849.4" y="1518" width="24.2" height="26" fill="#2B4C8C" opacity="0.67" transform="translate(240,0)" /><rect x="873.1" y="1518" width="24.2" height="26" fill="#2B4C8C" opacity="0.69" transform="translate(240,0)" /><rect x="896.7" y="1518" width="24.2" height="26" fill="#2B4C8C" opacity="0.71" transform="translate(240,0)" /><rect x="920.3" y="1518" width="24.2" height="26" fill="#2B4C8C" opacity="0.72" transform="translate(240,0)" /><rect x="943.9" y="1518" width="24.2" height="26" fill="#2B4C8C" opacity="0.72" transform="translate(240,0)" /><rect x="967.5" y="1518" width="24.2" height="26" fill="#2B4C8C" opacity="0.73" transform="translate(240,0)" /><rect x="991.1" y="1518" width="24.2" height="26" fill="#2B4C8C" opacity="0.74" transform="translate(240,0)" /><rect x="1014.7" y="1518" width="24.2" height="26" fill="#2B4C8C" opacity="0.75" transform="translate(240,0)" /><rect x="1038.3" y="1518" width="24.2" height="26" fill="#2B4C8C" opacity="0.76" transform="translate(240,0)" /><rect x="1061.9" y="1518" width="24.2" height="26" fill="#2B4C8C" opacity="0.76" transform="translate(240,0)" /><rect x="1085.6" y="1518" width="24.2" height="26" fill="#2B4C8C" opacity="0.76" transform="translate(240,0)" /><rect x="1109.2" y="1518" width="24.2" height="26" fill="#2B4C8C" opacity="0.76" transform="translate(240,0)" /><rect x="1132.8" y="1518" width="24.2" height="26" fill="#2B4C8C" opacity="0.76" transform="translate(240,0)" /><rect x="1156.4" y="1518" width="24.2" height="26" fill="#2B4C8C" opacity="0.76" transform="translate(240,0)" /><rect x="330" y="1518" width="850" height="26" fill="none" stroke="#2B4C8C" stroke-width="1.2" rx="3" transform="translate(240,0)" /><text x="40" y="1578.0" class="en" font-size="14" fill="#6B4C9A" text-anchor="start" font-weight="bold" font-family="Arial, Helvetica, sans-serif" aria-label="Subscapularis — 肩胛下肌"><tspan x="40" dy="0" lang="en">Subscapularis</tspan><tspan x="40" dy="16" font-size="12" font-weight="normal" class="cn" lang="zh-CN">肩胛下肌</tspan></text><text x="300" y="1578.0" class="en" font-size="13" fill="#666" text-anchor="start" font-weight="normal" font-family="Arial, Helvetica, sans-serif" aria-label="Subscapular nerves — 肩胛下神经"><tspan x="300" dy="0" lang="en">Subscapular nerves</tspan><tspan x="300" dy="15" font-size="11" font-weight="normal" class="cn" lang="zh-CN">肩胛下神经</tspan></text><rect x="330.0" y="1562" width="24.2" height="26" fill="#6B4C9A" opacity="0.30" transform="translate(240,0)" /><rect x="353.6" y="1562" width="24.2" height="26" fill="#6B4C9A" opacity="0.32" transform="translate(240,0)" /><rect x="377.2" y="1562" width="24.2" height="26" fill="#6B4C9A" opacity="0.34" transform="translate(240,0)" /><rect x="400.8" y="1562" width="24.2" height="26" fill="#6B4C9A" opacity="0.35" transform="translate(240,0)" /><rect x="424.4" y="1562" width="24.2" height="26" fill="#6B4C9A" opacity="0.36" transform="translate(240,0)" /><rect x="448.1" y="1562" width="24.2" height="26" fill="#6B4C9A" opacity="0.38" transform="translate(240,0)" /><rect x="471.7" y="1562" width="24.2" height="26" fill="#6B4C9A" opacity="0.40" transform="translate(240,0)" /><rect x="495.3" y="1562" width="24.2" height="26" fill="#6B4C9A" opacity="0.41" transform="translate(240,0)" /><rect x="518.9" y="1562" width="24.2" height="26" fill="#6B4C9A" opacity="0.42" transform="translate(240,0)" /><rect x="542.5" y="1562" width="24.2" height="26" fill="#6B4C9A" opacity="0.44" transform="translate(240,0)" /><rect x="566.1" y="1562" width="24.2" height="26" fill="#6B4C9A" opacity="0.46" transform="translate(240,0)" /><rect x="589.7" y="1562" width="24.2" height="26" fill="#6B4C9A" opacity="0.47" transform="translate(240,0)" /><rect x="613.3" y="1562" width="24.2" height="26" fill="#6B4C9A" opacity="0.49" transform="translate(240,0)" /><rect x="636.9" y="1562" width="24.2" height="26" fill="#6B4C9A" opacity="0.49" transform="translate(240,0)" /><rect x="660.6" y="1562" width="24.2" height="26" fill="#6B4C9A" opacity="0.50" transform="translate(240,0)" /><rect x="684.2" y="1562" width="24.2" height="26" fill="#6B4C9A" opacity="0.51" transform="translate(240,0)" /><rect x="707.8" y="1562" width="24.2" height="26" fill="#6B4C9A" opacity="0.52" transform="translate(240,0)" /><rect x="731.4" y="1562" width="24.2" height="26" fill="#6B4C9A" opacity="0.52" transform="translate(240,0)" /><rect x="755.0" y="1562" width="24.2" height="26" fill="#6B4C9A" opacity="0.53" transform="translate(240,0)" /><rect x="778.6" y="1562" width="24.2" height="26" fill="#6B4C9A" opacity="0.53" transform="translate(240,0)" /><rect x="802.2" y="1562" width="24.2" height="26" fill="#6B4C9A" opacity="0.53" transform="translate(240,0)" /><rect x="825.8" y="1562" width="24.2" height="26" fill="#6B4C9A" opacity="0.53" transform="translate(240,0)" /><rect x="849.4" y="1562" width="24.2" height="26" fill="#6B4C9A" opacity="0.53" transform="translate(240,0)" /><rect x="873.1" y="1562" width="24.2" height="26" fill="#6B4C9A" opacity="0.53" transform="translate(240,0)" /><rect x="896.7" y="1562" width="24.2" height="26" fill="#6B4C9A" opacity="0.53" transform="translate(240,0)" /><rect x="920.3" y="1562" width="24.2" height="26" fill="#6B4C9A" opacity="0.52" transform="translate(240,0)" /><rect x="943.9" y="1562" width="24.2" height="26" fill="#6B4C9A" opacity="0.52" transform="translate(240,0)" /><rect x="967.5" y="1562" width="24.2" height="26" fill="#6B4C9A" opacity="0.51" transform="translate(240,0)" /><rect x="991.1" y="1562" width="24.2" height="26" fill="#6B4C9A" opacity="0.50" transform="translate(240,0)" /><rect x="1014.7" y="1562" width="24.2" height="26" fill="#6B4C9A" opacity="0.49" transform="translate(240,0)" /><rect x="1038.3" y="1562" width="24.2" height="26" fill="#6B4C9A" opacity="0.49" transform="translate(240,0)" /><rect x="1061.9" y="1562" width="24.2" height="26" fill="#6B4C9A" opacity="0.48" transform="translate(240,0)" /><rect x="1085.6" y="1562" width="24.2" height="26" fill="#6B4C9A" opacity="0.47" transform="translate(240,0)" /><rect x="1109.2" y="1562" width="24.2" height="26" fill="#6B4C9A" opacity="0.46" transform="translate(240,0)" /><rect x="1132.8" y="1562" width="24.2" height="26" fill="#6B4C9A" opacity="0.46" transform="translate(240,0)" /><rect x="1156.4" y="1562" width="24.2" height="26" fill="#6B4C9A" opacity="0.45" transform="translate(240,0)" /><rect x="330" y="1562" width="850" height="26" fill="none" stroke="#6B4C9A" stroke-width="1.2" rx="3" transform="translate(240,0)" /><text x="40" y="1622.0" class="en" font-size="14" fill="#2B6C7C" text-anchor="start" font-weight="bold" font-family="Arial, Helvetica, sans-serif" aria-label="Upper Trapezius — 上斜方肌"><tspan x="40" dy="0" lang="en">Upper Trapezius</tspan><tspan x="40" dy="16" font-size="12" font-weight="normal" class="cn" lang="zh-CN">上斜方肌</tspan></text><text x="300" y="1622.0" class="en" font-size="13" fill="#666" text-anchor="start" font-weight="normal" font-family="Arial, Helvetica, sans-serif" aria-label="Accessory nerve — 副神经"><tspan x="300" dy="0" lang="en">Accessory nerve</tspan><tspan x="300" dy="15" font-size="11" font-weight="normal" class="cn" lang="zh-CN">副神经</tspan></text><rect x="330.0" y="1606" width="24.2" height="26" fill="#2B6C7C" opacity="0.22" transform="translate(240,0)" /><rect x="353.6" y="1606" width="24.2" height="26" fill="#2B6C7C" opacity="0.24" transform="translate(240,0)" /><rect x="377.2" y="1606" width="24.2" height="26" fill="#2B6C7C" opacity="0.28" transform="translate(240,0)" /><rect x="400.8" y="1606" width="24.2" height="26" fill="#2B6C7C" opacity="0.30" transform="translate(240,0)" /><rect x="424.4" y="1606" width="24.2" height="26" fill="#2B6C7C" opacity="0.34" transform="translate(240,0)" /><rect x="448.1" y="1606" width="24.2" height="26" fill="#2B6C7C" opacity="0.36" transform="translate(240,0)" /><rect x="471.7" y="1606" width="24.2" height="26" fill="#2B6C7C" opacity="0.40" transform="translate(240,0)" /><rect x="495.3" y="1606" width="24.2" height="26" fill="#2B6C7C" opacity="0.43" transform="translate(240,0)" /><rect x="518.9" y="1606" width="24.2" height="26" fill="#2B6C7C" opacity="0.46" transform="translate(240,0)" /><rect x="542.5" y="1606" width="24.2" height="26" fill="#2B6C7C" opacity="0.49" transform="translate(240,0)" /><rect x="566.1" y="1606" width="24.2" height="26" fill="#2B6C7C" opacity="0.52" transform="translate(240,0)" /><rect x="589.7" y="1606" width="24.2" height="26" fill="#2B6C7C" opacity="0.55" transform="translate(240,0)" /><rect x="613.3" y="1606" width="24.2" height="26" fill="#2B6C7C" opacity="0.58" transform="translate(240,0)" /><rect x="636.9" y="1606" width="24.2" height="26" fill="#2B6C7C" opacity="0.60" transform="translate(240,0)" /><rect x="660.6" y="1606" width="24.2" height="26" fill="#2B6C7C" opacity="0.62" transform="translate(240,0)" /><rect x="684.2" y="1606" width="24.2" height="26" fill="#2B6C7C" opacity="0.64" transform="translate(240,0)" /><rect x="707.8" y="1606" width="24.2" height="26" fill="#2B6C7C" opacity="0.66" transform="translate(240,0)" /><rect x="731.4" y="1606" width="24.2" height="26" fill="#2B6C7C" opacity="0.69" transform="translate(240,0)" /><rect x="755.0" y="1606" width="24.2" height="26" fill="#2B6C7C" opacity="0.71" transform="translate(240,0)" /><rect x="778.6" y="1606" width="24.2" height="26" fill="#2B6C7C" opacity="0.72" transform="translate(240,0)" /><rect x="802.2" y="1606" width="24.2" height="26" fill="#2B6C7C" opacity="0.72" transform="translate(240,0)" /><rect x="825.8" y="1606" width="24.2" height="26" fill="#2B6C7C" opacity="0.73" transform="translate(240,0)" /><rect x="849.4" y="1606" width="24.2" height="26" fill="#2B6C7C" opacity="0.74" transform="translate(240,0)" /><rect x="873.1" y="1606" width="24.2" height="26" fill="#2B6C7C" opacity="0.75" transform="translate(240,0)" /><rect x="896.7" y="1606" width="24.2" height="26" fill="#2B6C7C" opacity="0.76" transform="translate(240,0)" /><rect x="920.3" y="1606" width="24.2" height="26" fill="#2B6C7C" opacity="0.76" transform="translate(240,0)" /><rect x="943.9" y="1606" width="24.2" height="26" fill="#2B6C7C" opacity="0.76" transform="translate(240,0)" /><rect x="967.5" y="1606" width="24.2" height="26" fill="#2B6C7C" opacity="0.76" transform="translate(240,0)" /><rect x="991.1" y="1606" width="24.2" height="26" fill="#2B6C7C" opacity="0.76" transform="translate(240,0)" /><rect x="1014.7" y="1606" width="24.2" height="26" fill="#2B6C7C" opacity="0.76" transform="translate(240,0)" /><rect x="1038.3" y="1606" width="24.2" height="26" fill="#2B6C7C" opacity="0.76" transform="translate(240,0)" /><rect x="1061.9" y="1606" width="24.2" height="26" fill="#2B6C7C" opacity="0.76" transform="translate(240,0)" /><rect x="1085.6" y="1606" width="24.2" height="26" fill="#2B6C7C" opacity="0.76" transform="translate(240,0)" /><rect x="1109.2" y="1606" width="24.2" height="26" fill="#2B6C7C" opacity="0.76" transform="translate(240,0)" /><rect x="1132.8" y="1606" width="24.2" height="26" fill="#2B6C7C" opacity="0.76" transform="translate(240,0)" /><rect x="1156.4" y="1606" width="24.2" height="26" fill="#2B6C7C" opacity="0.76" transform="translate(240,0)" /><rect x="330" y="1606" width="850" height="26" fill="none" stroke="#2B6C7C" stroke-width="1.2" rx="3" transform="translate(240,0)" /><text x="40" y="1666.0" class="en" font-size="14" fill="#2B6C7C" text-anchor="start" font-weight="bold" font-family="Arial, Helvetica, sans-serif" aria-label="Serratus anterior — 前锯肌"><tspan x="40" dy="0" lang="en">Serratus anterior</tspan><tspan x="40" dy="16" font-size="12" font-weight="normal" class="cn" lang="zh-CN">前锯肌</tspan></text><text x="300" y="1666.0" class="en" font-size="13" fill="#666" text-anchor="start" font-weight="normal" font-family="Arial, Helvetica, sans-serif" aria-label="Long thoracic nerve — 胸长神经"><tspan x="300" dy="0" lang="en">Long thoracic nerve</tspan><tspan x="300" dy="15" font-size="11" font-weight="normal" class="cn" lang="zh-CN">胸长神经</tspan></text><rect x="330.0" y="1650" width="24.2" height="26" fill="#2B6C7C" opacity="0.22" transform="translate(240,0)" /><rect x="353.6" y="1650" width="24.2" height="26" fill="#2B6C7C" opacity="0.24" transform="translate(240,0)" /><rect x="377.2" y="1650" width="24.2" height="26" fill="#2B6C7C" opacity="0.26" transform="translate(240,0)" /><rect x="400.8" y="1650" width="24.2" height="26" fill="#2B6C7C" opacity="0.28" transform="translate(240,0)" /><rect x="424.4" y="1650" width="24.2" height="26" fill="#2B6C7C" opacity="0.30" transform="translate(240,0)" /><rect x="448.1" y="1650" width="24.2" height="26" fill="#2B6C7C" opacity="0.33" transform="translate(240,0)" /><rect x="471.7" y="1650" width="24.2" height="26" fill="#2B6C7C" opacity="0.35" transform="translate(240,0)" /><rect x="495.3" y="1650" width="24.2" height="26" fill="#2B6C7C" opacity="0.38" transform="translate(240,0)" /><rect x="518.9" y="1650" width="24.2" height="26" fill="#2B6C7C" opacity="0.41" transform="translate(240,0)" /><rect x="542.5" y="1650" width="24.2" height="26" fill="#2B6C7C" opacity="0.44" transform="translate(240,0)" /><rect x="566.1" y="1650" width="24.2" height="26" fill="#2B6C7C" opacity="0.47" transform="translate(240,0)" /><rect x="589.7" y="1650" width="24.2" height="26" fill="#2B6C7C" opacity="0.50" transform="translate(240,0)" /><rect x="613.3" y="1650" width="24.2" height="26" fill="#2B6C7C" opacity="0.53" transform="translate(240,0)" /><rect x="636.9" y="1650" width="24.2" height="26" fill="#2B6C7C" opacity="0.56" transform="translate(240,0)" /><rect x="660.6" y="1650" width="24.2" height="26" fill="#2B6C7C" opacity="0.59" transform="translate(240,0)" /><rect x="684.2" y="1650" width="24.2" height="26" fill="#2B6C7C" opacity="0.62" transform="translate(240,0)" /><rect x="707.8" y="1650" width="24.2" height="26" fill="#2B6C7C" opacity="0.65" transform="translate(240,0)" /><rect x="731.4" y="1650" width="24.2" height="26" fill="#2B6C7C" opacity="0.68" transform="translate(240,0)" /><rect x="755.0" y="1650" width="24.2" height="26" fill="#2B6C7C" opacity="0.71" transform="translate(240,0)" /><rect x="778.6" y="1650" width="24.2" height="26" fill="#2B6C7C" opacity="0.73" transform="translate(240,0)" /><rect x="802.2" y="1650" width="24.2" height="26" fill="#2B6C7C" opacity="0.76" transform="translate(240,0)" /><rect x="825.8" y="1650" width="24.2" height="26" fill="#2B6C7C" opacity="0.78" transform="translate(240,0)" /><rect x="849.4" y="1650" width="24.2" height="26" fill="#2B6C7C" opacity="0.80" transform="translate(240,0)" /><rect x="873.1" y="1650" width="24.2" height="26" fill="#2B6C7C" opacity="0.82" transform="translate(240,0)" /><rect x="896.7" y="1650" width="24.2" height="26" fill="#2B6C7C" opacity="0.84" transform="translate(240,0)" /><rect x="920.3" y="1650" width="24.2" height="26" fill="#2B6C7C" opacity="0.85" transform="translate(240,0)" /><rect x="943.9" y="1650" width="24.2" height="26" fill="#2B6C7C" opacity="0.86" transform="translate(240,0)" /><rect x="967.5" y="1650" width="24.2" height="26" fill="#2B6C7C" opacity="0.87" transform="translate(240,0)" /><rect x="991.1" y="1650" width="24.2" height="26" fill="#2B6C7C" opacity="0.88" transform="translate(240,0)" /><rect x="1014.7" y="1650" width="24.2" height="26" fill="#2B6C7C" opacity="0.88" transform="translate(240,0)" /><rect x="1038.3" y="1650" width="24.2" height="26" fill="#2B6C7C" opacity="0.89" transform="translate(240,0)" /><rect x="1061.9" y="1650" width="24.2" height="26" fill="#2B6C7C" opacity="0.89" transform="translate(240,0)" /><rect x="1085.6" y="1650" width="24.2" height="26" fill="#2B6C7C" opacity="0.89" transform="translate(240,0)" /><rect x="1109.2" y="1650" width="24.2" height="26" fill="#2B6C7C" opacity="0.89" transform="translate(240,0)" /><rect x="1132.8" y="1650" width="24.2" height="26" fill="#2B6C7C" opacity="0.89" transform="translate(240,0)" /><rect x="1156.4" y="1650" width="24.2" height="26" fill="#2B6C7C" opacity="0.89" transform="translate(240,0)" /><rect x="330" y="1650" width="850" height="26" fill="none" stroke="#2B6C7C" stroke-width="1.2" rx="3" transform="translate(240,0)" /><text x="40" y="1710.0" class="en" font-size="14" fill="#2B6C7C" text-anchor="start" font-weight="bold" font-family="Arial, Helvetica, sans-serif" aria-label="Lower Trapezius — 下斜方肌"><tspan x="40" dy="0" lang="en">Lower Trapezius</tspan><tspan x="40" dy="16" font-size="12" font-weight="normal" class="cn" lang="zh-CN">下斜方肌</tspan></text><text x="300" y="1710.0" class="en" font-size="13" fill="#666" text-anchor="start" font-weight="normal" font-family="Arial, Helvetica, sans-serif" aria-label="Accessory nerve — 副神经"><tspan x="300" dy="0" lang="en">Accessory nerve</tspan><tspan x="300" dy="15" font-size="11" font-weight="normal" class="cn" lang="zh-CN">副神经</tspan></text><rect x="330.0" y="1694" width="24.2" height="26" fill="#2B6C7C" opacity="0.12" transform="translate(240,0)" /><rect x="353.6" y="1694" width="24.2" height="26" fill="#2B6C7C" opacity="0.13" transform="translate(240,0)" /><rect x="377.2" y="1694" width="24.2" height="26" fill="#2B6C7C" opacity="0.14" transform="translate(240,0)" /><rect x="400.8" y="1694" width="24.2" height="26" fill="#2B6C7C" opacity="0.15" transform="translate(240,0)" /><rect x="424.4" y="1694" width="24.2" height="26" fill="#2B6C7C" opacity="0.16" transform="translate(240,0)" /><rect x="448.1" y="1694" width="24.2" height="26" fill="#2B6C7C" opacity="0.16" transform="translate(240,0)" /><rect x="471.7" y="1694" width="24.2" height="26" fill="#2B6C7C" opacity="0.17" transform="translate(240,0)" /><rect x="495.3" y="1694" width="24.2" height="26" fill="#2B6C7C" opacity="0.18" transform="translate(240,0)" /><rect x="518.9" y="1694" width="24.2" height="26" fill="#2B6C7C" opacity="0.20" transform="translate(240,0)" /><rect x="542.5" y="1694" width="24.2" height="26" fill="#2B6C7C" opacity="0.22" transform="translate(240,0)" /><rect x="566.1" y="1694" width="24.2" height="26" fill="#2B6C7C" opacity="0.23" transform="translate(240,0)" /><rect x="589.7" y="1694" width="24.2" height="26" fill="#2B6C7C" opacity="0.25" transform="translate(240,0)" /><rect x="613.3" y="1694" width="24.2" height="26" fill="#2B6C7C" opacity="0.26" transform="translate(240,0)" /><rect x="636.9" y="1694" width="24.2" height="26" fill="#2B6C7C" opacity="0.29" transform="translate(240,0)" /><rect x="660.6" y="1694" width="24.2" height="26" fill="#2B6C7C" opacity="0.32" transform="translate(240,0)" /><rect x="684.2" y="1694" width="24.2" height="26" fill="#2B6C7C" opacity="0.35" transform="translate(240,0)" /><rect x="707.8" y="1694" width="24.2" height="26" fill="#2B6C7C" opacity="0.38" transform="translate(240,0)" /><rect x="731.4" y="1694" width="24.2" height="26" fill="#2B6C7C" opacity="0.41" transform="translate(240,0)" /><rect x="755.0" y="1694" width="24.2" height="26" fill="#2B6C7C" opacity="0.44" transform="translate(240,0)" /><rect x="778.6" y="1694" width="24.2" height="26" fill="#2B6C7C" opacity="0.47" transform="translate(240,0)" /><rect x="802.2" y="1694" width="24.2" height="26" fill="#2B6C7C" opacity="0.50" transform="translate(240,0)" /><rect x="825.8" y="1694" width="24.2" height="26" fill="#2B6C7C" opacity="0.53" transform="translate(240,0)" /><rect x="849.4" y="1694" width="24.2" height="26" fill="#2B6C7C" opacity="0.56" transform="translate(240,0)" /><rect x="873.1" y="1694" width="24.2" height="26" fill="#2B6C7C" opacity="0.59" transform="translate(240,0)" /><rect x="896.7" y="1694" width="24.2" height="26" fill="#2B6C7C" opacity="0.62" transform="translate(240,0)" /><rect x="920.3" y="1694" width="24.2" height="26" fill="#2B6C7C" opacity="0.64" transform="translate(240,0)" /><rect x="943.9" y="1694" width="24.2" height="26" fill="#2B6C7C" opacity="0.66" transform="translate(240,0)" /><rect x="967.5" y="1694" width="24.2" height="26" fill="#2B6C7C" opacity="0.69" transform="translate(240,0)" /><rect x="991.1" y="1694" width="24.2" height="26" fill="#2B6C7C" opacity="0.71" transform="translate(240,0)" /><rect x="1014.7" y="1694" width="24.2" height="26" fill="#2B6C7C" opacity="0.73" transform="translate(240,0)" /><rect x="1038.3" y="1694" width="24.2" height="26" fill="#2B6C7C" opacity="0.76" transform="translate(240,0)" /><rect x="1061.9" y="1694" width="24.2" height="26" fill="#2B6C7C" opacity="0.76" transform="translate(240,0)" /><rect x="1085.6" y="1694" width="24.2" height="26" fill="#2B6C7C" opacity="0.77" transform="translate(240,0)" /><rect x="1109.2" y="1694" width="24.2" height="26" fill="#2B6C7C" opacity="0.78" transform="translate(240,0)" /><rect x="1132.8" y="1694" width="24.2" height="26" fill="#2B6C7C" opacity="0.78" transform="translate(240,0)" /><rect x="1156.4" y="1694" width="24.2" height="26" fill="#2B6C7C" opacity="0.79" transform="translate(240,0)" /><rect x="330" y="1694" width="850" height="26" fill="none" stroke="#2B6C7C" stroke-width="1.2" rx="3" transform="translate(240,0)" /><path d="M330,1424 L330,1738" stroke="#999" stroke-width="1" stroke-dasharray="3 4" transform="translate(240,0)" /><text x="570.0" y="1760.0" class="en" font-size="14" fill="#222" text-anchor="middle" font-weight="normal">0°</text><path d="M472,1424 L472,1738" stroke="#999" stroke-width="1" stroke-dasharray="none" transform="translate(240,0)" /><text x="711.7" y="1760.0" class="en" font-size="14" fill="#222" text-anchor="middle" font-weight="normal">30°</text><path d="M613,1424 L613,1738" stroke="#999" stroke-width="1" stroke-dasharray="3 4" transform="translate(240,0)" /><text x="853.3" y="1760.0" class="en" font-size="14" fill="#222" text-anchor="middle" font-weight="normal">60°</text><path d="M755,1424 L755,1738" stroke="#999" stroke-width="1" stroke-dasharray="none" transform="translate(240,0)" /><text x="995.0" y="1760.0" class="en" font-size="14" fill="#222" text-anchor="middle" font-weight="normal">90°</text><path d="M897,1424 L897,1738" stroke="#999" stroke-width="1" stroke-dasharray="3 4" transform="translate(240,0)" /><text x="1136.7" y="1760.0" class="en" font-size="14" fill="#222" text-anchor="middle" font-weight="normal">120°</text><path d="M1038,1424 L1038,1738" stroke="#999" stroke-width="1" stroke-dasharray="3 4" transform="translate(240,0)" /><text x="1278.3" y="1760.0" class="en" font-size="14" fill="#222" text-anchor="middle" font-weight="normal">150°</text><path d="M1180,1424 L1180,1738" stroke="#999" stroke-width="1" stroke-dasharray="3 4" transform="translate(240,0)" /><text x="1420.0" y="1760.0" class="en" font-size="14" fill="#222" text-anchor="middle" font-weight="normal">180°</text><text x="995" y="1795" class="en" font-size="13" fill="#2B4C8C" text-anchor="middle" font-weight="bold" font-family="Arial, Helvetica, sans-serif" aria-label="External rotation moves the greater tubercle out from under the acromion — 肱骨外旋，使大结节从肩峰下方移出"><tspan x="995" dy="0" lang="en">External rotation moves the greater tubercle out from under the acromion</tspan><tspan x="995" dy="15" font-size="11" font-weight="normal" class="cn" lang="zh-CN">肱骨外旋，使大结节从肩峰下方移出</tspan></text></svg>
