<?xml version="1.0" encoding="UTF-8"?><svg xmlns="http://www.w3.org/2000/svg" width="760" height="1000" viewBox="0 0 760 1000" role="img" aria-label="Pectoralis minor: origin and insertion — 胸小肌：起点与止点"><style>text{font-family:Arial,"PingFang SC","Microsoft YaHei",sans-serif}</style><defs></defs><rect width="100%" height="100%" fill="#fcfaf4"/><text class="fig-title" x="38" y="46" fill="#253b36" font-size="27" font-weight="700" aria-label="Pectoralis minor: origin and insertion — 胸小肌：起点与止点"><tspan x="38" dy="0" lang="en">Pectoralis minor: origin and insertion</tspan><tspan x="38" dy="32" lang="zh-CN" font-size="22" font-weight="400" fill="#68726a">胸小肌：起点与止点</tspan></text><clipPath id="fig03-crop"><rect x="180" y="40" width="565" height="520"/></clipPath><g transform="translate(-179.6,101.2) scale(1.22)"><g clip-path="url(#fig03-crop)"><path d="M392,230 C385,380 395,560 420,720" fill="none" stroke="#999" stroke-width="1.4" stroke-linecap="round" stroke-linejoin="round" stroke-dasharray="5 6" /><path d="M688,118 Q545,134 392,128" fill="none" stroke="#c9bfa9" stroke-width="13" stroke-linecap="round" stroke-linejoin="round" /><path d="M688,118 Q545,134 392,128" fill="none" stroke="#FBF5E6" stroke-width="9" stroke-linecap="round" stroke-linejoin="round" /><text x="378.0" y="133.0" font-size="13" fill="#8a7f6c" text-anchor="end" font-weight="700" lang="en">1</text><path d="M688,164 Q545,180 392,178" fill="none" stroke="#c9bfa9" stroke-width="13" stroke-linecap="round" stroke-linejoin="round" /><path d="M688,164 Q545,180 392,178" fill="none" stroke="#FBF5E6" stroke-width="9" stroke-linecap="round" stroke-linejoin="round" /><text x="378.0" y="183.0" font-size="13" fill="#8a7f6c" text-anchor="end" font-weight="700" lang="en">2</text><path d="M688,210 Q545,226 392,228" fill="none" stroke="#c9bfa9" stroke-width="13" stroke-linecap="round" stroke-linejoin="round" /><path d="M688,210 Q545,226 392,228" fill="none" stroke="#FBF5E6" stroke-width="9" stroke-linecap="round" stroke-linejoin="round" /><text x="378.0" y="233.0" font-size="13" fill="#8a7f6c" text-anchor="end" font-weight="700" lang="en">3</text><path d="M688,256 Q545,272 392,278" fill="none" stroke="#c9bfa9" stroke-width="13" stroke-linecap="round" stroke-linejoin="round" /><path d="M688,256 Q545,272 392,278" fill="none" stroke="#FBF5E6" stroke-width="9" stroke-linecap="round" stroke-linejoin="round" /><text x="378.0" y="283.0" font-size="13" fill="#8a7f6c" text-anchor="end" font-weight="700" lang="en">4</text><path d="M688,302 Q545,318 392,328" fill="none" stroke="#c9bfa9" stroke-width="13" stroke-linecap="round" stroke-linejoin="round" /><path d="M688,302 Q545,318 392,328" fill="none" stroke="#FBF5E6" stroke-width="9" stroke-linecap="round" stroke-linejoin="round" /><text x="378.0" y="333.0" font-size="13" fill="#8a7f6c" text-anchor="end" font-weight="700" lang="en">5</text><path d="M688,348 Q545,364 392,378" fill="none" stroke="#c9bfa9" stroke-width="13" stroke-linecap="round" stroke-linejoin="round" /><path d="M688,348 Q545,364 392,378" fill="none" stroke="#FBF5E6" stroke-width="9" stroke-linecap="round" stroke-linejoin="round" /><text x="378.0" y="383.0" font-size="13" fill="#8a7f6c" text-anchor="end" font-weight="700" lang="en">6</text><path d="M688,394 Q545,410 392,428" fill="none" stroke="#c9bfa9" stroke-width="13" stroke-linecap="round" stroke-linejoin="round" /><path d="M688,394 Q545,410 392,428" fill="none" stroke="#FBF5E6" stroke-width="9" stroke-linecap="round" stroke-linejoin="round" /><text x="378.0" y="433.0" font-size="13" fill="#8a7f6c" text-anchor="end" font-weight="700" lang="en">7</text><path d="M672,95 L728,95 L722,170 L678,170 Z" fill="#FBF5E6" stroke="#3A3A3A" stroke-width="1.8" stroke-linecap="round" stroke-linejoin="round" /><path d="M672,95 L728,95 L722,170 L678,170 Z" fill="none" stroke="#3A3A3A" stroke-width="0.90" stroke-linecap="round" stroke-linejoin="round" opacity="0.32" transform="translate(1.4,1.0)"/><path d="M680,170 L720,170 L714,470 L686,470 Z" fill="#FBF5E6" stroke="#3A3A3A" stroke-width="1.8" stroke-linecap="round" stroke-linejoin="round" /><path d="M680,170 L720,170 L714,470 L686,470 Z" fill="none" stroke="#3A3A3A" stroke-width="0.90" stroke-linecap="round" stroke-linejoin="round" opacity="0.32" transform="translate(1.4,1.0)"/><path d="M690,470 L710,470 L700,510 Z" fill="#FBF5E6" stroke="#3A3A3A" stroke-width="1.6" stroke-linecap="round" stroke-linejoin="round" /><path d="M690,470 L710,470 L700,510 Z" fill="none" stroke="#3A3A3A" stroke-width="0.80" stroke-linecap="round" stroke-linejoin="round" opacity="0.32" transform="translate(1.4,1.0)"/><path d="M250,190 L240,720 L285,720 L300,195 Z" fill="#FBF5E6" stroke="#3A3A3A" stroke-width="2" stroke-linecap="round" stroke-linejoin="round" /><path d="M250,190 L240,720 L285,720 L300,195 Z" fill="none" stroke="#3A3A3A" stroke-width="1.00" stroke-linecap="round" stroke-linejoin="round" opacity="0.32" transform="translate(1.4,1.0)"/><circle cx="270" cy="150" r="55" fill="#FBF5E6" stroke="#3A3A3A" stroke-width="2"/><path d="M330,108 Q352,126 362,146 Q352,154 338,146 Z" fill="#FBF5E6" stroke="#3A3A3A" stroke-width="2" stroke-linecap="round" stroke-linejoin="round" /><path d="M330,108 Q352,126 362,146 Q352,154 338,146 Z" fill="none" stroke="#3A3A3A" stroke-width="1.00" stroke-linecap="round" stroke-linejoin="round" opacity="0.32" transform="translate(1.4,1.0)"/><path d="M345,140 L560,212 L566,262 L572,316 Z" fill="#d9b3a6" stroke="#8f4a3c" stroke-width="2.2" stroke-linecap="round" stroke-linejoin="round" opacity="0.9" /><path d="M345,140 L560,212 L566,262 L572,316 Z" fill="none" stroke="#8f4a3c" stroke-width="1.10" stroke-linecap="round" stroke-linejoin="round" opacity="0.29" transform="translate(1.4,1.0)"/><path d="M262,200 L266,430" fill="none" stroke="#b5ab98" stroke-width="1.2" stroke-linecap="round" stroke-linejoin="round" stroke-dasharray="4 5" /><path d="M680,100 C600,112 520,70 440,80 C390,86 340,78 300,80" fill="none" stroke="#3A3A3A" stroke-width="22" stroke-linecap="round" stroke-linejoin="round" /><path d="M680,100 C600,112 520,70 440,80 C390,86 340,78 300,80" fill="none" stroke="#3A3A3A" stroke-width="11.00" stroke-linecap="round" stroke-linejoin="round" opacity="0.32" transform="translate(1.4,1.0)"/><path d="M680,100 C600,112 520,70 440,80 C390,86 340,78 300,80" fill="none" stroke="#FBF5E6" stroke-width="17" stroke-linecap="round" stroke-linejoin="round" /><path d="M228,70 Q270,52 318,68 Q322,86 300,92 Q260,96 232,90 Z" fill="#FBF5E6" stroke="#3A3A3A" stroke-width="2" stroke-linecap="round" stroke-linejoin="round" /><path d="M228,70 Q270,52 318,68 Q322,86 300,92 Q260,96 232,90 Z" fill="none" stroke="#3A3A3A" stroke-width="1.00" stroke-linecap="round" stroke-linejoin="round" opacity="0.32" transform="translate(1.4,1.0)"/></g></g><path d="M504,365 Q372,242 241,272" fill="none" stroke="#253b36" stroke-width="2.2" stroke-linecap="round" stroke-linejoin="round" stroke-dasharray="8 6" /><path d="M511,423 Q376,242 241,272" fill="none" stroke="#253b36" stroke-width="2.2" stroke-linecap="round" stroke-linejoin="round" stroke-dasharray="8 6" /><path d="M518,484 Q380,242 241,272" fill="none" stroke="#253b36" stroke-width="2.2" stroke-linecap="round" stroke-linejoin="round" stroke-dasharray="8 6" /><circle cx="503.6" cy="364.7" r="17" fill="#8f4a3c" stroke="#fff" stroke-width="3"/><text x="503.6" y="371.7" font-size="19" fill="#fff" text-anchor="middle" font-weight="700" lang="en">O</text><circle cx="510.9" cy="423.3" r="17" fill="#8f4a3c" stroke="#fff" stroke-width="3"/><text x="510.9" y="430.3" font-size="19" fill="#fff" text-anchor="middle" font-weight="700" lang="en">O</text><circle cx="518.2" cy="484.3" r="17" fill="#8f4a3c" stroke="#fff" stroke-width="3"/><text x="518.2" y="491.3" font-size="19" fill="#fff" text-anchor="middle" font-weight="700" lang="en">O</text><circle cx="241.3" cy="272.0" r="19" fill="#253b36" stroke="#fff" stroke-width="3"/><text x="241.3" y="279.5" font-size="21" fill="#fff" text-anchor="middle" font-weight="700" lang="en">I</text><text x="38.0" y="124.0" font-size="16" fill="#666" text-anchor="start" font-weight="400" aria-label="Dashed line = attachment order, not force · grey numbers = ribs — 虚线 = 起点 → 止点的附着顺序，不是受力方向；灰色数字 = 肋骨序号"><tspan x="38.0" dy="0" lang="en">Dashed line = attachment order, not force · grey numbers = ribs</tspan><tspan x="38.0" dy="20" lang="zh-CN" font-size="15" font-weight="400" fill="#68726a">虚线 = 起点 → 止点的附着顺序，不是受力方向；灰色数字 = 肋骨序号</tspan></text><text x="38.0" y="838.0" font-size="21" fill="#8f4a3c" text-anchor="start" font-weight="600" aria-label="O = Origin: ribs 3–5 — 起点：第 3–5 肋"><tspan x="38.0" dy="0" lang="en">O = Origin: ribs 3–5</tspan><tspan x="38.0" dy="28" lang="zh-CN" font-size="20" font-weight="400" fill="#68726a">起点：第 3–5 肋</tspan></text><text x="38.0" y="906.0" font-size="21" fill="#253b36" text-anchor="start" font-weight="600" aria-label="I = Insertion: coracoid process — 止点：喙突"><tspan x="38.0" dy="0" lang="en">I = Insertion: coracoid process</tspan><tspan x="38.0" dy="28" lang="zh-CN" font-size="20" font-weight="400" fill="#68726a">止点：喙突</tspan></text><text class="fig-foot" x="38" y="966" font-size="13" fill="#6b706a"><tspan x="38" dy="0" lang="en">Schematic; pathway and layers are simplified.</tspan><tspan x="38" dy="17" lang="zh-CN">解剖示意；走行与层次经过简化。</tspan></text></svg>